<svg width="33" height="32" viewBox="0 0 33 32" fill="none" xmlns="http://www.w3.org/2000/svg">
<g id="HiOutlineCursorClick">
<path id="Vector (Stroke)" fill-rule="evenodd" clip-rule="evenodd" d="M9.5273 1.69752C10.2608 1.50676 11.0148 1.92869 11.2116 2.63993L12.2799 6.5026C12.4767 7.21384 12.0415 7.94506 11.3081 8.13582C10.5746 8.32658 9.82053 7.90465 9.62381 7.19341L8.55543 3.33074C8.35871 2.6195 8.79383 1.88828 9.5273 1.69752ZM20.1535 4.45719C20.6905 4.97789 20.6905 5.82211 20.1535 6.34281L17.2358 9.17215C16.6988 9.69285 15.8282 9.69285 15.2912 9.17215C14.7543 8.65145 14.7543 7.80723 15.2912 7.28653L18.209 4.45719C18.7459 3.9365 19.6165 3.9365 20.1535 4.45719ZM1.74915 9.23871C1.94581 8.52745 2.69984 8.10546 3.43333 8.29616L7.41808 9.33216C8.15156 9.52286 8.58675 10.254 8.39009 10.9653C8.19343 11.6766 7.4394 12.0986 6.70591 11.9079L2.72116 10.8719C1.98768 10.6812 1.55249 9.94997 1.74915 9.23871ZM11.4027 11.0572C11.7805 10.6909 12.3428 10.5699 12.8449 10.7469L27.9699 16.0803C28.5058 16.2692 28.8658 16.7593 28.8748 17.3122C28.8839 17.865 28.5401 18.366 28.0107 18.5713L23.0718 20.487L28.4723 25.7239C29.0092 26.2446 29.0092 27.0888 28.4723 27.6095C27.9353 28.1302 27.0647 28.1302 26.5277 27.6095L21.1272 22.3726L19.1516 27.1619C18.9399 27.6752 18.4233 28.0086 17.8532 27.9998C17.283 27.9911 16.7776 27.642 16.5828 27.1223L11.0828 12.4557C10.9002 11.9688 11.025 11.4235 11.4027 11.0572ZM19.6527 19.0572C19.5091 19.1965 19.4038 19.359 19.337 19.5322L17.9362 22.9282L14.6741 14.2295L23.6447 17.3927L20.1426 18.7511C19.9639 18.8158 19.7964 18.9179 19.6527 19.0572ZM9.45693 14.8274C9.99416 15.3479 9.99457 16.1921 9.45785 16.713L6.54285 19.5424C6.00613 20.0633 5.13553 20.0637 4.59831 19.5433C4.06108 19.0228 4.06067 18.1786 4.59739 17.6576L7.51239 14.8283C8.04911 14.3074 8.91971 14.307 9.45693 14.8274Z" fill="#4A8CF8"/>
</g>
</svg>
